<svg width="150" height="150" viewBox="0 0 150 150" fill="none" xmlns="http://www.w3.org/2000/svg">
<rect x="35.8209" y="116.087" width="33.5821" height="33.4868" fill="#FF7F50" fill-opacity="0.4"/>
<rect x="76.1194" y="116.087" width="33.5821" height="33.4868" fill="#FF7F50" fill-opacity="0.4"/>
<rect x="116.418" y="116.087" width="33.5821" height="33.4868" fill="#FF7F50" fill-opacity="0.4"/>
<rect x="76.1194" y="75.9034" width="33.5821" height="33.4868" fill="#FF7F50" fill-opacity="0.4"/>
<rect x="116.418" y="75.9034" width="33.5821" height="33.4868" fill="#FF7F50" fill-opacity="0.4"/>
<rect x="116.418" y="35.7192" width="33.5821" height="33.4868" fill="#FF7F50" fill-opacity="0.4"/>
<path d="M85.1012 149.116C104.131 146.092 120.922 135.994 130.437 123.443C106.37 140.459 64.3922 88.5547 31.9296 57.8585C-4.63367 23.2849 -7.23765 88.5547 11.2206 116.46C28.5713 142.692 58.7952 153.296 85.1012 149.116Z" fill="#FF7F50"/>
<path d="M31.3698 91.9034C52.4146 136.999 92.937 143.436 109.728 141.017L104.131 143.808C57.5639 144.701 28.9444 111.809 21.8549 95.252L16.8176 97.4845L19.0564 74.0438L38.0862 89.1128L31.3698 91.9034Z" fill="white"/>
<path d="M64.3657 0.883926C45.3359 3.90759 28.5448 14.0056 19.0299 26.5571C43.0971 9.54074 85.0747 61.4453 117.537 92.1415C154.101 126.715 156.705 61.4453 138.246 33.5396C120.896 7.3083 90.6717 -3.29585 64.3657 0.883926Z" fill="#FF7F50"/>
<path d="M118.097 58.0966C97.0522 13.0011 56.5298 6.56415 39.7388 8.98264L45.3358 6.19208C91.9029 5.29909 120.522 38.1906 127.612 54.7479L132.649 52.5155L130.41 75.9562L111.381 60.8872L118.097 58.0966Z" fill="white"/>
</svg>
